<?xml version="1.0" standalone="no"?>
<!DOCTYPE svg PUBLIC "-//W3C//DTD SVG 20010904//EN"
 "http://www.w3.org/TR/2001/REC-SVG-20010904/DTD/svg10.dtd">
<svg version="1.0" xmlns="http://www.w3.org/2000/svg"
 width="74.000000pt" height="72.000000pt" viewBox="0 0 74.000000 72.000000"
 preserveAspectRatio="xMidYMid meet">
<g transform="translate(0.000000,72.000000) scale(0.100000,-0.100000)"
fill="#18CDF2" stroke="none">
<path d="M0 355 l0 -355 370 0 370 0 0 355 0 355 -370 0 -370 0 0 -355z m348
49 c2 -132 1 -142 -21 -175 -29 -44 -95 -60 -154 -38 -41 16 -51 35 -31 62 13
17 16 17 43 3 73 -38 95 -9 95 126 l0 98 -55 0 -55 0 0 35 0 36 88 -3 87 -3 3
-141z m277 111 l0 -30 -67 -3 -68 -3 0 -39 0 -40 60 0 c60 0 60 0 60 -30 0
-30 0 -30 -60 -30 l-60 0 0 -75 0 -75 -35 0 -35 0 0 180 0 181 103 -3 102 -3
0 -30z"/>
</g>
</svg>
